<?xml version="1.0" encoding="utf-8"?>
<!-- Designed by Vexels.com - 2016 All Rights Reserved - https://vexels.com/terms-and-conditions/  -->

<svg version="1.1" id="Capa_1" xmlns="http://www.w3.org/2000/svg" xmlns:xlink="http://www.w3.org/1999/xlink" x="0px" y="0px"
	 width="1200px" height="1200px" viewBox="0 0 1200 1200" enable-background="new 0 0 1200 1200" xml:space="preserve">
<g>
	<g>
		<path fill="#420F06" d="M1127.766,984.537c17.37-31.271-8.339-41.69-17.381-45.173c-9.016-3.482-34.057-23.632-45.17-33.366
			c-11.129-9.734-8.347-3.485-6.949-26.396c1.396-22.95-8.347-6.277-11.129-14.622c-2.793-8.328-32.677-63.225-45.886-80.61
			c-13.19-17.365-29.874-47.28-29.874-47.28c8.34-2.066-0.708-18.042-0.708-18.042c-12.487-26.434-59.758-122.353-76.462-143.2
			c-8.239-10.308-25.544-27.288-40.897-41.794c9.634-4.535,7.437-10.233,13.088-15.897c6.973-6.944,9.761,1.381,34.767-18.77
			c25.025-20.156,9.047-44.476,12.517-61.146c3.472-16.7,34.072-42.403,34.754-49.38c0.685-6.934,14.594-21.53,20.853-37.51
			c6.249-16.001-4.861-61.173-11.108-74.385c-6.277-13.222-13.908-31.272-26.433-47.961c-12.521-16.673-22.219-14.597-48.649-15.976
			c-26.399-1.386-31.269,0-91.75,0c-60.461,0-98.692,0.688-111.911,4.165c-13.193,3.484-9.026-4.862-9.026-4.862
			c5.581-4.166,0-9.729,0-9.729v-8.343c6.96-4.182-1.384-12.524-1.384-12.524c2.079-31.955-29.195-55.593-45.188-63.944
			c-15.98-8.325-27.798-2.764-27.798-2.764l-29.191,4.171c-33.367-4.171-41.008,52.829-41.008,52.829
			c-7.645,9.708-1.398,30.578-1.398,30.578c-1.381,26.433,16.006,51.443,16.006,51.443c13.188,7.632,0.68,13.19,0.68,13.19
			s-11.128,9.729-26.412,20.155c-15.289,10.449-26.404,29.181-42.383,59.098c-16.006,29.879-20.178,41.688-27.117,61.151
			c-6.949,19.458-9.041,34.744-10.424,68.144c-1.389,33.33,5.559,55.577,20.153,89.643c14.603,34.06,63.938,58.389,63.938,58.389
			s18.069,27.116,27.812,41.683c4.563,6.823,18.069,20.207,31.821,33.556l-384.222,317.46c0,0-22.919,18.078-46.563,15.985
			l-62.574-5.562c0,0-15.965-5.549-23.636,8.342l-10.424,22.237c0,0-7.631,13.903,17.387,14.585l63.248,1.393
			c0,0,15.291,7.652,50.054-26.407l414.016-331.2c8.648,8.543,15.558,15.702,17.631,19.133
			c6.252,10.421,15.276,15.972,21.535,31.953c6.252,16.006,11.811,37.543,25.726,56.314c13.887,18.768,41.007,57.688,41.007,57.688
			s-1.405,5.554,4.859,13.217c6.257,7.631,11.811,3.445,18.07,15.975c6.265,12.524,11.821,31.269,18.773,49.348
			c6.959,18.07,3.477,21.565,13.888,41.689c9.957,19.235,27.466,7.481,29.056,6.378c0.388,0.663,0.886,1.523,1.539,2.656
			c4.864,8.35,27.805,30.603,27.805,30.603l-0.708-43.106c6.265-2.784,13.225-14.588,13.225-14.588
			c4.864-19.463-11.143-56.312-13.909-61.865c-2.779-5.558-13.906-27.095-22.945-40.311c-9.026-13.217-15.976-12.52-20.155-36.857
			c-4.172-24.324-18.771-88.257-24.319-98.684c-5.58-10.421-17.395-34.059-15.291-44.482c2.085-10.422-1.382-10.422-4.867-20.867
			c-3.49-10.422-2.795-31.26-2.795-31.26s22.953,18.054,22.953,30.578c0,12.512,24.335,49.338,31.942,58.377
			c7.679,9.041,16.704,16.696,14.625,28.53c-2.096,11.804-8.347,12.493,2.077,15.286c10.432,2.764,43.803,0.685,45.19,2.764
			c1.379,2.104,25.012,20.837,43.764,34.062c18.787,13.206,77.873,63.245,75.083,75.052c-2.777,11.823,24.327,24.348,27.086,30.597
			c2.798,6.247,9.747,12.493,17.392,22.232c7.662,9.724,20.863,20.177,22.248,29.218c1.39,9.008,8.328,17.354,13.19,15.288
			c4.866-2.103,25.054,6.244,36.161,18.053c11.111,11.826,38.927-4.183,38.927-4.183l35.438,12.524L1127.766,984.537z
			 M798.306,417.394c11.13-6.972,27.104-31.294,34.762-43.789c7.649-12.524,10.416-6.278,10.416-6.278
			c-6.246,7.659,9.737,24.332-3.482,27.812c-13.195,3.456-8.35,9.009-9.729,18.077c-1.382,9.01-0.688,9.01-16.673,26.396
			c-16.004,17.361-6.257,48.654-6.257,48.654l-2.717,3.29c-2.481-2.047-4.705-3.923-6.322-5.388
			c-6.955-6.245-3.473-30.576-4.165-47.937C793.447,420.85,787.172,424.332,798.306,417.394z"/>
		<path fill="#420F06" d="M159.546,1070.041v13.211c0,0,22.239,6.944,47.964,1.38l0.687-15.28
			C208.197,1069.349,186.64,1063.763,159.546,1070.041z"/>
	</g>
</g>
</svg>
